<?xml version="1.0" standalone="no"?>
<!DOCTYPE svg PUBLIC "-//W3C//DTD SVG 20010904//EN"
 "http://www.w3.org/TR/2001/REC-SVG-20010904/DTD/svg10.dtd">
<svg version="1.0" xmlns="http://www.w3.org/2000/svg"
 width="700.000000pt" height="700.000000pt" viewBox="0 0 700.000000 700.000000"
 preserveAspectRatio="xMidYMid meet">
<metadata>
Created by potrace 1.11, written by Peter Selinger 2001-2013
</metadata>
<g transform="translate(0.000000,700.000000) scale(0.100000,-0.100000)"
fill="#000000" stroke="none">
<path d="M0 3500 l0 -3500 3500 0 3500 0 0 3500 0 3500 -3500 0 -3500 0 0
-3500z m6985 0 l0 -3485 -3485 0 -3485 0 -3 3475 c-1 1911 0 3481 3 3488 3 10
706 12 3487 10 l3483 -3 0 -3485z"/>
<path d="M4445 6519 c-417 -54 -909 -109 -986 -109 -76 0 -407 -30 -734 -66
-202 -22 -234 -28 -267 -49 -78 -51 -614 -448 -642 -475 -27 -26 -35 -55 -102
-347 -41 -175 -71 -327 -68 -338 3 -11 64 -202 134 -425 71 -223 147 -466 169
-540 40 -130 42 -136 98 -193 67 -68 257 -233 459 -399 130 -106 149 -118 230
-146 779 -265 751 -257 1184 -348 223 -47 419 -91 436 -99 25 -11 61 -63 199
-297 l168 -283 19 -224 c14 -160 17 -231 9 -247 -9 -20 -366 -346 -418 -380
-25 -18 -305 -35 -934 -58 -222 -9 -434 -18 -470 -21 -62 -5 -82 0 -285 65
-375 119 -382 122 -546 223 -194 119 -209 127 -253 127 -26 0 -44 -8 -69 -32
-19 -18 -141 -199 -270 -403 -247 -386 -252 -398 -224 -460 6 -14 50 -54 97
-89 72 -53 139 -88 402 -205 175 -78 323 -141 331 -141 8 0 162 -27 343 -60
l330 -60 477 0 477 0 178 34 c98 19 266 51 373 71 184 35 685 153 740 175 14
6 110 95 213 198 l186 187 125 263 c120 252 128 273 193 502 l67 240 -93 347
c-69 263 -97 354 -115 373 -12 14 -99 108 -193 210 l-171 185 -343 201 c-293
171 -645 362 -937 508 -52 26 -181 65 -458 140 l-386 103 -191 198 c-106 109
-196 207 -200 219 -4 11 -7 133 -5 271 l3 250 167 226 c92 124 175 233 185
241 11 10 141 45 311 84 l293 68 372 -41 372 -41 394 -162 c427 -176 434 -178
487 -125 33 33 434 839 434 872 0 36 -33 91 -62 103 -33 15 -903 220 -925 219
-10 -1 -148 -19 -308 -40z m778 -94 c389 -93 445 -109 465 -131 12 -14 22 -38
22 -55 0 -36 -391 -821 -426 -856 -13 -13 -35 -23 -49 -23 -14 0 -142 47 -283
106 -141 58 -316 129 -388 159 l-132 54 -376 42 -376 42 -284 -67 c-157 -36
-297 -70 -310 -76 -35 -13 -380 -475 -389 -519 -11 -51 -8 -472 2 -509 7 -23
69 -94 202 -230 106 -108 199 -201 208 -206 8 -5 186 -55 396 -111 423 -113
365 -90 823 -331 221 -117 699 -390 873 -500 35 -22 361 -367 392 -415 16 -25
187 -656 187 -690 0 -10 -29 -121 -64 -246 -61 -213 -73 -245 -186 -483 l-121
-255 -182 -183 c-100 -101 -190 -188 -200 -193 -43 -24 -561 -143 -908 -208
l-376 -71 -479 0 -479 0 -345 61 -345 61 -305 136 c-239 106 -323 148 -388
195 -46 33 -87 68 -92 78 -27 49 -15 72 231 457 132 207 248 383 257 389 40
32 82 17 268 -97 l179 -110 260 -85 c143 -46 280 -89 303 -96 35 -10 113 -10
385 0 632 22 1116 50 1144 65 49 25 426 372 439 403 12 27 11 65 -6 259 l-20
227 -171 289 c-131 220 -178 292 -201 304 -16 8 -210 53 -431 100 l-402 84
-438 146 -438 146 -112 91 c-369 298 -542 460 -558 521 -16 64 -71 241 -206
664 l-125 393 71 312 71 312 39 35 c34 31 600 451 638 473 18 11 461 60 733
81 507 40 621 51 1045 106 248 31 465 58 483 59 19 0 232 -46 475 -104z"/>
</g>
</svg>
